<?xml version="1.0" standalone="no"?><!DOCTYPE svg PUBLIC "-//W3C//DTD SVG 1.1//EN" "http://www.w3.org/Graphics/SVG/1.1/DTD/svg11.dtd"><svg t="1562473018486" class="icon" viewBox="0 0 1024 1024" version="1.1" xmlns="http://www.w3.org/2000/svg" p-id="517" xmlns:xlink="http://www.w3.org/1999/xlink" width="100%" height="100%"><defs><style type="text/css"></style></defs><path d="M727.28171457 968.45419457l78.06065778-69.77561284a1.16508445 1.16508445 0 0 0 0-1.68289976L375.94402765 513.4239921a1.16508445 1.16508445 0 0 1 0-1.68289975l429.3983447-383.70114371a1.16508445 1.16508445 0 0 0 0-1.68289975l-78.06065778-69.77561284a1.16508445 1.16508445 0 0 0-1.55344593 0L214.90346667 510.05819259a1.16508445 1.16508445 0 0 0 0 1.68289976 1.16508445 1.16508445 0 0 1 0 1.68289975 1.16508445 1.16508445 0 0 0 0 1.68289975l510.82480197 453.34730272a1.16508445 1.16508445 0 0 0 1.55344593 0z" fill="#ffffff" p-id="518"></path></svg>