<?xml version="1.0" standalone="no"?><!DOCTYPE svg PUBLIC "-//W3C//DTD SVG 1.1//EN" "http://www.w3.org/Graphics/SVG/1.1/DTD/svg11.dtd"><svg t="1562660807602" class="icon" viewBox="0 0 1024 1024" version="1.1" xmlns="http://www.w3.org/2000/svg" p-id="3094" xmlns:xlink="http://www.w3.org/1999/xlink" width="100%" height="100%"><defs><style type="text/css"></style></defs><path d="M940.7 840.7L602.2 502.3l319.1-319.1c25.8-25.8 25.8-64.5 0-90.2s-64.5-25.8-90.2 0L512 412.1 192.9 93c-25.8-25.8-64.5-25.8-90.2 0s-25.8 64.5 0 90.2L423.1 501 83.3 840.7c-25.8 25.8-25.8 64.5 0 90.2 12.9 12.9 25.8 19.3 45.1 19.3s32.2-6.4 45.1-19.3l340.2-340.2L856.9 931c12.9 12.9 25.8 19.3 45.1 19.3s32.2-6.4 38.7-19.3c25.7-25.8 25.7-64.5 0-90.3z" p-id="3095" fill="#8a8a8a"></path></svg>