<?xml version="1.0" standalone="no"?><!DOCTYPE svg PUBLIC "-//W3C//DTD SVG 1.1//EN" "http://www.w3.org/Graphics/SVG/1.1/DTD/svg11.dtd"><svg t="1561008693818" class="icon" style="" viewBox="0 0 1024 1024" version="1.1" xmlns="http://www.w3.org/2000/svg" p-id="8019" xmlns:xlink="http://www.w3.org/1999/xlink" width="100%" height="100%"><defs><style type="text/css"></style></defs><path d="M867.265306 867.265306c-3.134694 0-6.791837-1.044898-9.92653-2.612245l-54.857143-28.734694c-39.183673 20.37551-83.069388 31.346939-128.522449 31.346939-141.061224 0-256-102.922449-256-229.877551s114.938776-229.877551 256-229.877551 256 102.922449 256 229.877551c0 50.677551-18.808163 100.310204-53.289796 140.538776l10.971428 65.306122c1.567347 7.836735-2.089796 15.673469-8.359183 20.37551-3.657143 2.089796-7.836735 3.657143-12.016327 3.657143z m-193.306122-417.959184c-118.073469 0-214.204082 84.114286-214.204082 188.081633s96.130612 188.081633 214.204082 188.081633c42.318367 0 83.069388-10.971429 118.073469-31.346939 6.269388-3.657143 14.106122-3.657143 20.37551-0.522449l27.167347 14.106122-5.746939-33.436734c-1.044898-6.269388 1.044898-13.061224 5.22449-17.763266 31.346939-33.436735 49.110204-76.277551 49.110204-119.640816 0-103.444898-96.130612-187.559184-214.204081-187.559184z" p-id="8020" fill="#ffffff"></path><path d="M579.918367 579.395918m-31.346938 0a31.346939 31.346939 0 1 0 62.693877 0 31.346939 31.346939 0 1 0-62.693877 0Z" p-id="8021" fill="#ffffff"></path><path d="M768 579.395918m-31.346939 0a31.346939 31.346939 0 1 0 62.693878 0 31.346939 31.346939 0 1 0-62.693878 0Z" p-id="8022" fill="#ffffff"></path><path d="M292.571429 344.293878m-36.571429 0a36.571429 36.571429 0 1 0 73.142857 0 36.571429 36.571429 0 1 0-73.142857 0Z" p-id="8023" fill="#ffffff"></path><path d="M512 344.293878m-36.571429 0a36.571429 36.571429 0 1 0 73.142858 0 36.571429 36.571429 0 1 0-73.142858 0Z" p-id="8024" fill="#ffffff"></path><path d="M166.138776 709.485714c-4.179592 0-8.881633-1.567347-12.538776-4.179592-6.269388-4.702041-9.404082-12.538776-8.359184-20.37551l14.106123-81.502041C117.028571 554.840816 94.040816 494.759184 94.040816 433.110204 94.040816 280.555102 232.489796 156.734694 402.285714 156.734694c80.979592 0 157.257143 27.689796 215.24898 78.889796 58.514286 51.2 91.428571 119.640816 92.995918 193.306122 0 5.746939-2.089796 11.493878-6.269388 15.67347s-9.926531 6.269388-15.673469 5.746938c-5.22449-0.522449-9.926531-0.522449-14.106122-0.522449-118.073469 0-214.204082 84.114286-214.204082 188.081633 0 14.106122 2.089796 28.734694 5.746939 42.840816 1.567347 5.746939 0.522449 12.016327-2.612245 17.240817s-8.881633 8.359184-14.628572 8.881632c-15.15102 2.089796-30.302041 3.134694-45.453061 3.134694-55.902041 0-109.714286-13.583673-157.257143-38.661224l-68.963265 36.571428c-4.179592 0.522449-7.836735 1.567347-10.971428 1.567347z m78.889795-83.591836c3.657143 0 7.314286 1.044898 10.44898 2.612244 48.587755 28.212245 106.057143 41.795918 164.571429 38.138776-1.567347-9.926531-2.089796-19.853061-2.089796-29.779592 0-124.865306 111.281633-226.742857 249.208163-229.877551-14.628571-117.028571-128.522449-208.979592-264.881633-208.979592-146.808163 0-266.44898 105.012245-266.448979 234.579592 0 54.334694 21.942857 107.62449 61.12653 149.420408 4.702041 4.702041 6.269388 11.493878 5.22449 17.763266l-8.359184 50.155102 41.795919-21.942858c3.134694-1.044898 6.269388-2.089796 9.404081-2.089795z" p-id="8025" fill="#ffffff"></path></svg>